<svg width="512" height="512" viewBox="0 0 512 512" fill="none" xmlns="http://www.w3.org/2000/svg">
<mask id="mask0_1_3" style="mask-type:luminance" maskUnits="userSpaceOnUse" x="0" y="165" width="510" height="113">
<path d="M0 165.983H509.337V277.017H0V165.983Z" fill="white"/>
</mask>
<g mask="url(#mask0_1_3)">
<path d="M0 212.471C0 189.934 18.9242 171.574 41.5276 171.574C46.7229 171.487 51.8832 172.439 56.705 174.373C61.5267 176.308 65.9125 179.187 69.6042 182.84L61.6742 190.728C56.2743 185.527 49.0391 182.664 41.5395 182.761C25.0761 182.761 12.2086 196.006 12.2086 212.49C12.2086 228.975 25.0562 242.212 41.5395 242.212C52.2161 242.212 58.3005 237.925 62.1981 234.031C65.3931 230.835 67.4808 226.235 68.2825 220.001H41.5315V208.779H79.1496C79.5743 211.094 79.7767 213.446 79.745 215.798C79.745 224.173 77.4588 234.547 70.0686 241.93C62.8649 249.382 53.6767 253.331 41.5315 253.331C18.9202 253.327 0 235.018 0 212.471ZM110.14 242.989C102.166 242.989 95.2757 236.406 95.2757 227.028C95.2757 217.646 102.154 211.071 110.14 211.071C118.117 211.071 124.988 217.554 124.988 227.04C124.988 236.529 118.109 242.989 110.14 242.989ZM110.14 200.705C95.5813 200.705 83.6981 211.788 83.6981 227.024C83.6981 242.259 95.5694 253.323 110.14 253.323C124.706 253.323 136.581 242.148 136.581 227.008C136.581 211.86 124.694 200.697 110.14 200.697V200.705ZM167.809 242.989C159.831 242.989 152.941 236.406 152.941 227.028C152.941 217.646 159.823 211.071 167.805 211.071C175.787 211.071 182.673 217.554 182.673 227.04C182.673 236.529 175.787 243.009 167.805 243.009L167.809 242.989ZM167.809 200.717C153.251 200.717 141.364 211.8 141.364 227.036C141.364 242.275 153.239 253.339 167.805 253.339C182.371 253.339 194.246 242.164 194.246 227.02C194.246 211.876 182.371 200.697 167.805 200.697V200.721L167.809 200.717ZM269.145 174.366H257.568V251.773H269.145V174.362V174.366Z" fill="#202124"/>
<path d="M269.145 174.366H257.568V251.773H269.145V174.362V174.366ZM299.976 210.872C304.569 210.872 308.458 213.164 309.752 216.464L286.208 226.231C285.902 216.055 294.09 210.876 299.972 210.876L299.976 210.872ZM300.869 242.993C294.979 242.993 290.792 240.297 288.101 235.03L323.33 220.461L322.143 217.491C319.948 211.606 313.269 200.741 299.599 200.741C285.922 200.741 274.753 211.416 274.753 227.056C274.753 241.819 285.93 253.375 300.897 253.375C305.238 253.397 309.517 252.34 313.348 250.3C317.179 248.26 320.443 245.301 322.846 241.688L313.868 235.701C310.851 240.082 306.763 242.997 300.873 242.997L300.869 242.993ZM225.355 242.993C217.382 242.993 210.686 236.311 210.686 227.139C210.686 217.967 217.374 211.079 225.355 211.079C233.337 211.079 239.386 217.86 239.386 227.139C239.386 236.418 233.222 242.993 225.344 242.993H225.355ZM238.596 202.295V206.578H238.199C235.599 203.461 230.614 200.689 224.331 200.689C211.162 200.689 199.089 212.26 199.089 227.123C199.089 241.986 211.158 253.327 224.331 253.327C230.618 253.327 235.603 250.559 238.195 247.343H238.592V251.134C238.592 261.207 233.21 266.592 224.562 266.592C217.477 266.592 213.091 261.504 211.313 257.241L201.232 261.437C203.127 266.07 206.367 270.03 210.535 272.808C214.703 275.585 219.607 277.053 224.617 277.021C238.191 277.021 249.662 269.051 249.662 249.588V202.295H238.596ZM396.792 174.251H357.721V251.888H396.792V174.251ZM469.254 253.117C491.389 253.117 509.337 235.185 509.337 213.065C509.337 190.95 491.389 173.018 469.254 173.018C447.115 173.018 429.167 190.95 429.167 213.069C429.167 235.185 447.115 253.117 469.254 253.117ZM409.6 260.152H402.071L423.503 165.983H431.037L409.6 260.152Z" fill="#202124"/>
</g>
<path d="M439.815 347.841C435.588 347.841 431.815 346.761 428.497 344.602C425.202 342.42 422.611 339.318 420.724 335.295C418.861 331.25 417.929 326.398 417.929 320.739C417.929 315.08 418.872 310.239 420.759 306.216C422.668 302.193 425.281 299.114 428.599 296.977C431.918 294.841 435.679 293.773 439.884 293.773C443.134 293.773 445.747 294.318 447.724 295.409C449.724 296.477 451.27 297.727 452.361 299.159C453.474 300.591 454.338 301.852 454.952 302.943H455.565V277H465.759V346.818H455.804V338.67H454.952C454.338 339.784 453.452 341.057 452.293 342.489C451.156 343.92 449.588 345.17 447.588 346.239C445.588 347.307 442.997 347.841 439.815 347.841ZM442.065 339.148C444.997 339.148 447.474 338.375 449.497 336.83C451.543 335.261 453.088 333.091 454.134 330.318C455.202 327.545 455.736 324.318 455.736 320.636C455.736 317 455.213 313.818 454.168 311.091C453.122 308.364 451.588 306.239 449.565 304.716C447.543 303.193 445.043 302.432 442.065 302.432C438.997 302.432 436.44 303.227 434.395 304.818C432.349 306.409 430.804 308.58 429.759 311.33C428.736 314.08 428.224 317.182 428.224 320.636C428.224 324.136 428.747 327.284 429.793 330.08C430.838 332.875 432.384 335.091 434.429 336.727C436.497 338.341 439.043 339.148 442.065 339.148Z" fill="#202124"/>
<path d="M386.437 347.875C381.278 347.875 376.835 346.773 373.108 344.568C369.403 342.341 366.54 339.216 364.517 335.193C362.517 331.148 361.517 326.409 361.517 320.977C361.517 315.614 362.517 310.886 364.517 306.795C366.54 302.705 369.358 299.511 372.972 297.216C376.608 294.92 380.858 293.773 385.722 293.773C388.676 293.773 391.54 294.261 394.312 295.239C397.085 296.216 399.574 297.75 401.778 299.841C403.983 301.932 405.722 304.648 406.994 307.989C408.267 311.307 408.903 315.341 408.903 320.091V323.705H367.278V316.068H398.915C398.915 313.386 398.369 311.011 397.278 308.943C396.187 306.852 394.653 305.205 392.676 304C390.722 302.795 388.426 302.193 385.79 302.193C382.926 302.193 380.426 302.898 378.29 304.307C376.176 305.693 374.54 307.511 373.381 309.761C372.244 311.989 371.676 314.409 371.676 317.023V322.989C371.676 326.489 372.29 329.466 373.517 331.92C374.767 334.375 376.506 336.25 378.733 337.545C380.96 338.818 383.562 339.455 386.54 339.455C388.472 339.455 390.233 339.182 391.824 338.636C393.415 338.068 394.79 337.227 395.949 336.114C397.108 335 397.994 333.625 398.608 331.989L408.256 333.727C407.483 336.568 406.097 339.057 404.097 341.193C402.119 343.307 399.631 344.955 396.631 346.136C393.653 347.295 390.256 347.875 386.437 347.875Z" fill="#202124"/>
<path d="M323.378 347.841C319.151 347.841 315.378 346.761 312.06 344.602C308.764 342.42 306.173 339.318 304.287 335.295C302.423 331.25 301.491 326.398 301.491 320.739C301.491 315.08 302.435 310.239 304.321 306.216C306.23 302.193 308.844 299.114 312.162 296.977C315.48 294.841 319.241 293.773 323.446 293.773C326.696 293.773 329.31 294.318 331.287 295.409C333.287 296.477 334.832 297.727 335.923 299.159C337.037 300.591 337.901 301.852 338.514 302.943H339.128V277H349.321V346.818H339.366V338.67H338.514C337.901 339.784 337.014 341.057 335.855 342.489C334.719 343.92 333.151 345.17 331.151 346.239C329.151 347.307 326.56 347.841 323.378 347.841ZM325.628 339.148C328.56 339.148 331.037 338.375 333.06 336.83C335.105 335.261 336.651 333.091 337.696 330.318C338.764 327.545 339.298 324.318 339.298 320.636C339.298 317 338.776 313.818 337.73 311.091C336.685 308.364 335.151 306.239 333.128 304.716C331.105 303.193 328.605 302.432 325.628 302.432C322.56 302.432 320.003 303.227 317.957 304.818C315.912 306.409 314.366 308.58 313.321 311.33C312.298 314.08 311.787 317.182 311.787 320.636C311.787 324.136 312.31 327.284 313.355 330.08C314.401 332.875 315.946 335.091 317.991 336.727C320.06 338.341 322.605 339.148 325.628 339.148Z" fill="#202124"/>
<path d="M256.594 315.727V346.818H246.401V294.455H256.185V302.977H256.832C258.037 300.205 259.923 297.977 262.491 296.295C265.082 294.614 268.344 293.773 272.276 293.773C275.844 293.773 278.969 294.523 281.651 296.023C284.332 297.5 286.412 299.705 287.889 302.636C289.366 305.568 290.105 309.193 290.105 313.511V346.818H279.912V314.739C279.912 310.943 278.923 307.977 276.946 305.841C274.969 303.682 272.253 302.602 268.798 302.602C266.435 302.602 264.332 303.114 262.491 304.136C260.673 305.159 259.23 306.659 258.162 308.636C257.116 310.591 256.594 312.955 256.594 315.727Z" fill="#202124"/>
<path d="M212.625 347.875C207.466 347.875 203.023 346.773 199.295 344.568C195.591 342.341 192.727 339.216 190.705 335.193C188.705 331.148 187.705 326.409 187.705 320.977C187.705 315.614 188.705 310.886 190.705 306.795C192.727 302.705 195.545 299.511 199.159 297.216C202.795 294.92 207.045 293.773 211.909 293.773C214.864 293.773 217.727 294.261 220.5 295.239C223.273 296.216 225.761 297.75 227.966 299.841C230.17 301.932 231.909 304.648 233.182 307.989C234.455 311.307 235.091 315.341 235.091 320.091V323.705H193.466V316.068H225.102C225.102 313.386 224.557 311.011 223.466 308.943C222.375 306.852 220.841 305.205 218.864 304C216.909 302.795 214.614 302.193 211.977 302.193C209.114 302.193 206.614 302.898 204.477 304.307C202.364 305.693 200.727 307.511 199.568 309.761C198.432 311.989 197.864 314.409 197.864 317.023V322.989C197.864 326.489 198.477 329.466 199.705 331.92C200.955 334.375 202.693 336.25 204.92 337.545C207.148 338.818 209.75 339.455 212.727 339.455C214.659 339.455 216.42 339.182 218.011 338.636C219.602 338.068 220.977 337.227 222.136 336.114C223.295 335 224.182 333.625 224.795 331.989L234.443 333.727C233.67 336.568 232.284 339.057 230.284 341.193C228.307 343.307 225.818 344.955 222.818 346.136C219.841 347.295 216.443 347.875 212.625 347.875Z" fill="#202124"/>
<path d="M179.344 294.455V302.636H150.741V294.455H179.344ZM158.412 281.909H168.605V331.443C168.605 333.42 168.901 334.909 169.491 335.909C170.082 336.886 170.844 337.557 171.776 337.92C172.73 338.261 173.764 338.432 174.878 338.432C175.696 338.432 176.412 338.375 177.026 338.261C177.639 338.148 178.116 338.057 178.457 337.989L180.298 346.409C179.707 346.636 178.866 346.864 177.776 347.091C176.685 347.341 175.321 347.477 173.685 347.5C171.003 347.545 168.503 347.068 166.185 346.068C163.866 345.068 161.991 343.523 160.56 341.432C159.128 339.341 158.412 336.716 158.412 333.557V281.909Z" fill="#202124"/>
<path d="M110.071 294.455L121.628 314.841L133.287 294.455H144.435L128.105 320.636L144.571 346.818H133.423L121.628 327.25L109.866 346.818H98.6847L114.98 320.636L98.8892 294.455H110.071Z" fill="#202124"/>
<path d="M45 346.818V277H88.7727V286.068H55.5341V307.341H86.4886V316.375H55.5341V337.75H89.1818V346.818H45Z" fill="#202124"/>
</svg>
